<svg width="31" height="31" viewBox="0 0 31 31" fill="none" xmlns="http://www.w3.org/2000/svg">
<path d="M31 7.26562V16.0449C31 16.7137 30.4579 17.2559 29.7891 17.2559C29.1203 17.2559 28.5781 16.7137 28.5781 16.0449V7.26562C28.5781 4.59478 26.4052 2.42188 23.7344 2.42188H7.26562C4.59478 2.42188 2.42188 4.59478 2.42188 7.26562V23.7344C2.42188 26.4052 4.59478 28.5781 7.26562 28.5781H16.4385C17.1073 28.5781 17.6494 29.1203 17.6494 29.7891C17.6494 30.4579 17.1073 31 16.4385 31H7.26562C3.25936 31 0 27.7406 0 23.7344V7.26562C0 3.25936 3.25936 0 7.26562 0H23.7344C27.7406 0 31 3.25936 31 7.26562ZM11.7461 9.56641H24.0977C24.7665 9.56641 25.3086 9.02427 25.3086 8.35547C25.3086 7.68667 24.7665 7.14453 24.0977 7.14453H11.7461C11.0773 7.14453 10.5352 7.68667 10.5352 8.35547C10.5352 9.02427 11.0773 9.56641 11.7461 9.56641ZM25.3086 15.5C25.3086 14.8312 24.7665 14.2891 24.0977 14.2891H11.7461C11.0773 14.2891 10.5352 14.8312 10.5352 15.5C10.5352 16.1688 11.0773 16.7109 11.7461 16.7109H24.0977C24.7665 16.7109 25.3086 16.1688 25.3086 15.5ZM11.7461 21.4336C11.0773 21.4336 10.5352 21.9757 10.5352 22.6445C10.5352 23.3133 11.0773 23.8555 11.7461 23.8555H14.1074C14.7762 23.8555 15.3184 23.3133 15.3184 22.6445C15.3184 21.9757 14.7762 21.4336 14.1074 21.4336H11.7461ZM31 22.9556C31 22.9638 30.9999 22.972 30.9998 22.9801C30.9462 25.6315 29.4393 28.14 26.6421 30.2344C25.9644 30.7419 25.152 30.9956 24.3398 30.9957C23.5275 30.9958 22.7154 30.742 22.0375 30.2344C19.2403 28.1399 17.7335 25.6315 17.6799 22.9801C17.6798 22.9719 17.6797 22.9637 17.6797 22.9556C17.6797 20.781 19.4452 19.0117 21.6152 19.0117C22.6717 19.0117 23.6322 19.4301 24.3398 20.1099C25.0475 19.4301 26.008 19.0117 27.0645 19.0117C29.2345 19.0117 31 20.781 31 22.9556V22.9556ZM28.5781 22.9444C28.5721 22.1103 27.8954 21.4336 27.0645 21.4336C26.2298 21.4336 25.5508 22.1126 25.5508 22.9473C25.5508 23.6161 25.0086 24.1582 24.3398 24.1582C23.671 24.1582 23.1289 23.6161 23.1289 22.9473C23.1289 22.1126 22.4499 21.4336 21.6152 21.4336C20.7843 21.4336 20.1076 22.1103 20.1016 22.9444C20.1561 25.3112 21.9729 27.1605 23.4892 28.2958C23.9901 28.6709 24.6897 28.6708 25.1905 28.2959C26.7067 27.1605 28.5235 25.3112 28.5781 22.9444ZM8.41602 8.41602C8.41602 7.58004 7.73831 6.90234 6.90234 6.90234C6.06637 6.90234 5.38867 7.58004 5.38867 8.41602C5.38867 9.25199 6.06637 9.92969 6.90234 9.92969C7.73831 9.92969 8.41602 9.25199 8.41602 8.41602ZM8.41602 15.5C8.41602 14.664 7.73831 13.9863 6.90234 13.9863C6.06637 13.9863 5.38867 14.664 5.38867 15.5C5.38867 16.336 6.06637 17.0137 6.90234 17.0137C7.73831 17.0137 8.41602 16.336 8.41602 15.5V15.5ZM6.90234 21.1309C6.06637 21.1309 5.38867 21.8086 5.38867 22.6445C5.38867 23.4805 6.06637 24.1582 6.90234 24.1582C7.73831 24.1582 8.41602 23.4805 8.41602 22.6445C8.41602 21.8086 7.73831 21.1309 6.90234 21.1309Z" fill="#242527"/>
</svg>
