<svg   width="25" height="25"   viewBox="0 0 476 476" fill="none" xmlns="http://www.w3.org/2000/svg">
<path d="M200.999 63.9521C196.053 63.9521 191.77 65.7641 188.152 69.3781L93.078 164.453H18.276C13.324 164.453 9.042 166.265 5.426 169.877C1.809 173.493 0 177.778 0 182.726V292.356C0 297.305 1.809 301.589 5.426 305.204C9.045 308.821 13.328 310.631 18.276 310.631H93.074L188.148 405.709C191.765 409.319 196.048 411.133 200.995 411.133C205.947 411.133 210.229 409.32 213.845 405.709C217.462 402.095 219.271 397.808 219.271 392.862V82.2281C219.271 77.2801 217.462 72.9941 213.849 69.3781C210.23 65.7641 205.951 63.9521 200.999 63.9521Z" fill="black"/>
<path d="M316.769 277.936C324.862 265.469 328.904 252.006 328.904 237.541C328.904 223.076 324.862 209.549 316.769 196.985C308.675 184.423 297.978 175.575 284.648 170.434C282.746 169.485 280.364 169.007 277.509 169.007C272.565 169.007 268.277 170.769 264.662 174.289C261.052 177.81 259.235 182.141 259.235 187.279C259.235 191.276 260.378 194.655 262.667 197.416C264.95 200.178 267.708 202.558 270.949 204.555C274.179 206.553 277.417 208.743 280.657 211.122C283.895 213.502 286.653 216.88 288.935 221.257C291.211 225.637 292.361 231.061 292.361 237.534C292.361 244.005 291.218 249.43 288.935 253.81C286.653 258.191 283.895 261.565 280.657 263.95C277.417 266.329 274.179 268.519 270.949 270.517C267.708 272.509 264.95 274.894 262.667 277.649C260.385 280.414 259.235 283.792 259.235 287.789C259.235 292.933 261.051 297.259 264.662 300.779C268.276 304.3 272.564 306.067 277.509 306.067C280.363 306.067 282.745 305.588 284.648 304.643C297.978 299.304 308.679 290.403 316.769 277.936Z" fill="black"/>
<path d="M377.728 318.194C393.908 293.548 402.001 266.663 402.001 237.54C402.001 208.416 393.907 181.535 377.728 156.874C361.551 132.229 340.128 114.291 313.487 103.059C311.016 102.109 308.539 101.632 306.071 101.632C301.123 101.632 296.835 103.441 293.217 107.058C289.604 110.674 287.793 114.956 287.793 119.905C287.793 127.329 291.506 132.944 298.932 136.754C309.589 142.272 316.82 146.459 320.625 149.313C334.714 159.593 345.702 172.486 353.601 187.999C361.499 203.513 365.449 220.025 365.449 237.536C365.449 255.048 361.5 271.559 353.601 287.072C345.703 302.588 334.707 315.479 320.625 325.756C316.819 328.613 309.589 332.799 298.932 338.319C291.506 342.128 287.793 347.743 287.793 355.166C287.793 360.114 289.604 364.402 293.217 368.013C296.834 371.634 301.208 373.445 306.348 373.445C308.634 373.445 311.016 372.962 313.487 372.017C340.128 360.783 361.551 342.844 377.728 318.194Z" fill="black"/>
</svg>
